<svg xmlns="http://www.w3.org/2000/svg" width="512" height="512" viewBox="0 0 512 512" version="1.1">
	<path d="M 47.746 145.086 C 32.489 148.681, 20.251 162.304, 17.943 178.258 C 17.446 181.691, 17.031 206.346, 17.020 233.047 L 17 281.595 11.768 285.047 C 0.690 292.359, -2.546 303.558, 2.397 317.481 C 6.232 328.286, 11.463 336.487, 19.985 345.058 C 31.899 357.041, 46.375 364.502, 62.523 366.984 C 67.357 367.726, 128.170 367.963, 260.500 367.753 C 441.563 367.467, 451.810 367.357, 457.464 365.638 C 481.900 358.212, 500.480 341.537, 508.874 319.500 C 510.131 316.200, 511.574 312.719, 512.080 311.764 C 513.365 309.338, 513.288 298.007, 512 300 C 511.201 301.236, 511.028 301.138, 511.015 299.446 C 510.988 295.732, 505.197 288.040, 499.993 284.805 L 495 281.701 494.980 234.101 C 494.969 207.920, 494.549 183.662, 494.048 180.194 C 492.252 167.775, 484.360 155.811, 473.932 149.701 C 464.008 143.886, 466.190 143.997, 362.540 144.032 C 260.098 144.066, 265.169 143.796, 263.064 149.331 C 262.098 151.872, 261.714 152, 255.044 152 C 248.388 152, 248.006 151.874, 247.405 149.477 C 245.961 143.722, 250.978 143.991, 147.027 144.100 C 94.487 144.156, 49.811 144.599, 47.746 145.086 M 325.067 162.654 C 319.563 165.397, 314.626 171.078, 312.326 177.316 C 311.489 179.585, 311.130 194.933, 311.076 230.750 L 311 281 395.035 281 L 479.069 281 478.785 229.750 L 478.500 178.500 475.589 173.246 C 473.988 170.356, 471.175 166.845, 469.338 165.444 C 461.976 159.829, 464.320 160, 394.728 160 L 330.393 160 325.067 162.654 M 334.455 210.455 C 332.290 212.619, 332 213.785, 332 220.320 C 332 229.400, 334.118 233, 339.462 233 C 344.961 233, 347.281 230.267, 347.793 223.185 C 348.036 219.823, 347.946 215.920, 347.592 214.511 C 345.980 208.087, 338.982 205.927, 334.455 210.455 M 444.861 209.912 C 442.715 211.649, 442.500 212.598, 442.500 220.307 C 442.500 230.495, 443.996 233, 450.082 233 C 455.926 233, 458 229.678, 458 220.320 C 458 213.785, 457.710 212.619, 455.545 210.455 C 452.566 207.475, 448.147 207.250, 444.861 209.912 M 376.635 219.073 C 374.609 220.666, 374 222.029, 374 224.969 C 374 228.122, 374.645 229.359, 377.677 232.022 C 382.922 236.627, 387.561 238.326, 395 238.366 C 406.036 238.427, 416 231.846, 416 224.496 C 416 222.067, 415.275 220.575, 413.365 219.073 C 409.848 216.306, 407.255 216.460, 402.482 219.719 C 397.235 223.301, 392.489 223.304, 387.328 219.727 C 382.613 216.460, 380.148 216.309, 376.635 219.073 M 0.320 306 C 0.320 309.575, 0.502 311.038, 0.723 309.250 C 0.945 307.462, 0.945 304.538, 0.723 302.750 C 0.502 300.962, 0.320 302.425, 0.320 306" stroke="none" fill="black" fill-rule="evenodd"/>
</svg>